<svg xmlns="http://www.w3.org/2000/svg" width="668" height="668" viewBox="0 0 668 668"><g transform="translate(-598 -155)"><rect width="668" height="668" transform="translate(598 155)" fill="none"/><path d="M495.413,605.924H446.587V525.848a171.529,171.529,0,0,1-29.284-7.069,176.051,176.051,0,0,1-27.385-11.9,177.329,177.329,0,0,1-46.6-36.322,171.5,171.5,0,0,1-17.978-23.422,164.345,164.345,0,0,1-13.606-26.266,155.838,155.838,0,0,1-11.627-59.072h41.5a120.5,120.5,0,0,0,39.427,89.717,133.713,133.713,0,0,0,179.924,0,120.5,120.5,0,0,0,39.427-89.717h41.5A156.423,156.423,0,0,1,630.264,421a164.363,164.363,0,0,1-13.606,26.3,171.142,171.142,0,0,1-17.978,23.434A176.169,176.169,0,0,1,524.7,518.859a170.649,170.649,0,0,1-29.284,6.989v80.075ZM471,435.032a73.1,73.1,0,0,1-73.238-73.238V215.316a73.239,73.239,0,1,1,146.478,0L544,361.794a73.158,73.158,0,0,1-21.3,51.816A72.615,72.615,0,0,1,471,435.032ZM315.573,290h0l-57.243-92.978,36.89,0a175.634,175.634,0,0,1,12.835-65.975A174.428,174.428,0,0,1,324.1,100.559,177.012,177.012,0,0,1,374.069,50.59a174.363,174.363,0,0,1,62.982-25.675,175.832,175.832,0,0,1,99.459,9.628A174.439,174.439,0,0,1,567,50.59a176.619,176.619,0,0,1,27.5,22.466c18.255,18.256,31.93,39.054,40.644,61.819a165.492,165.492,0,0,1,9.081,34.5,170.449,170.449,0,0,1,1.526,35.892H601.767a131.49,131.49,0,1,0-262.721-8.234l38.512,0L315.573,290Z" transform="translate(479.669 175.295)" fill="#1492ff"/></g></svg>